<svg xmlns="http://www.w3.org/2000/svg" width="176" height="176" viewBox="0 0 176 176" role="img" aria-label="Walnut logo mark">
  <defs>
    <linearGradient id="walnut-mark-stroke" x1="46" x2="130" y1="40" y2="136" gradientUnits="userSpaceOnUse">
      <stop offset="0" stop-color="#34f5a2"/>
      <stop offset="0.56" stop-color="#10b981"/>
      <stop offset="1" stop-color="#14b8a6"/>
    </linearGradient>
    <filter id="soft-shadow" x="-20%" y="-20%" width="140%" height="140%" color-interpolation-filters="sRGB">
      <feDropShadow dx="0" dy="0" stdDeviation="10" flood-color="#10b981" flood-opacity="0.18"/>
    </filter>
  </defs>
  <rect width="176" height="176" rx="36" fill="#020617"/>
  <rect x="8" y="8" width="160" height="160" rx="32" fill="#020617" stroke="#34d399" stroke-opacity="0.34" stroke-width="4"/>
  <g filter="url(#soft-shadow)" transform="translate(28 26) scale(2.5)">
    <path d="M24 7c-4.5 0-7.8 3.2-8.1 7.5-4.2.5-7.3 3.9-7.3 8.1 0 1.6.4 3 1.2 4.3-2 1.6-3.1 3.9-3.1 6.5 0 4.7 3.8 8.6 8.5 8.6 2.6 0 4.8-1.1 6.4-2.9.7.2 1.5.3 2.4.3s1.7-.1 2.4-.3c1.6 1.8 3.8 2.9 6.4 2.9 4.7 0 8.5-3.9 8.5-8.6 0-2.6-1.1-4.9-3.1-6.5.8-1.3 1.2-2.7 1.2-4.3 0-4.2-3.1-7.6-7.3-8.1C31.8 10.2 28.5 7 24 7Z" fill="#020617" stroke="url(#walnut-mark-stroke)" stroke-linecap="round" stroke-linejoin="round" stroke-width="3"/>
    <path d="M24 8.5v30M16 16c3.2 2.4 5.4 5.5 6.4 9M32 16c-3.2 2.4-5.4 5.5-6.4 9M10.5 27c4.1 1.5 7.1 3.9 9.1 7.4M37.5 27c-4.1 1.5-7.1 3.9-9.1 7.4" fill="none" stroke="#ccfbf1" stroke-linecap="round" stroke-linejoin="round" stroke-width="2.4"/>
  </g>
</svg>
